<svg width="767" height="403" viewBox="0 0 767 403" fill="none" xmlns="http://www.w3.org/2000/svg">
<g filter="url(#filter0_d_1208_202)">
<path d="M245.03 65.8197L29.5264 325C8.18112 348.406 -15.2392 389.664 29.5264 395H281.94C291.431 395 300.363 390.509 306.023 382.89L337.168 340.963C342.069 334.365 337.36 325 329.141 325H156.652C148.299 325 143.628 315.365 148.801 308.806L336.251 71.1936C341.425 64.6353 336.754 55 328.4 55H268.098C259.183 55 250.73 58.9648 245.03 65.8197Z" fill="#D9D7D7"/>
</g>
<g filter="url(#filter1_d_1208_202)">
<path d="M336.03 17.8197L120.526 277C99.1811 300.406 75.7608 341.664 120.526 347H372.94C382.431 347 391.363 342.509 397.023 334.89L428.168 292.963C433.069 286.365 428.36 277 420.141 277H247.652C239.299 277 234.628 267.365 239.801 260.806L427.251 23.1936C432.425 16.6353 427.754 7 419.4 7H359.098C350.183 7 341.73 10.9648 336.03 17.8197Z" fill="#34A72A"/>
</g>
<g filter="url(#filter2_d_1208_202)">
<path d="M502.996 329.18L718.5 70C739.845 46.594 763.266 5.33591 718.5 0H466.086C456.595 0 447.664 4.4913 442.004 12.1103L410.858 54.0368C405.957 60.6348 410.666 70 418.886 70H591.374C599.727 70 604.399 79.6353 599.225 86.1936L411.775 323.806C406.601 330.365 411.273 340 419.626 340H479.929C488.844 340 497.297 336.035 502.996 329.18Z" fill="#51F044"/>
</g>
<path d="M4 195.3C4 152.056 39.0561 117 82.3 117H758.3C763.105 117 767 120.895 767 125.7C767 168.944 731.944 204 688.7 204H12.7C7.89513 204 4 200.105 4 195.3Z" fill="#0D82B4"/>
<g filter="url(#filter3_d_1208_202)">
<path d="M262.453 152.484L260.859 162.797C260.297 166.766 259.297 170.578 257.859 174.234C256.453 177.859 254.578 181.094 252.234 183.938C249.891 186.781 247.031 189.031 243.656 190.688C240.312 192.312 236.453 193.062 232.078 192.938C227.891 192.844 224.391 191.938 221.578 190.219C218.766 188.5 216.562 186.234 214.969 183.422C213.375 180.578 212.328 177.406 211.828 173.906C211.328 170.375 211.297 166.766 211.734 163.078L213.281 152.719C213.844 148.844 214.828 145.094 216.234 141.469C217.672 137.844 219.578 134.609 221.953 131.766C224.328 128.891 227.188 126.656 230.531 125.062C233.906 123.438 237.781 122.688 242.156 122.812C246.281 122.875 249.734 123.766 252.516 125.484C255.328 127.203 257.531 129.469 259.125 132.281C260.75 135.094 261.812 138.266 262.312 141.797C262.844 145.297 262.891 148.859 262.453 152.484ZM245.016 163.078L246.609 152.578C246.766 151.234 246.938 149.641 247.125 147.797C247.312 145.922 247.312 144.078 247.125 142.266C246.938 140.453 246.391 138.922 245.484 137.672C244.578 136.422 243.125 135.75 241.125 135.656C238.75 135.5 236.844 135.969 235.406 137.062C233.969 138.125 232.828 139.547 231.984 141.328C231.172 143.078 230.562 144.969 230.156 147C229.75 149 229.422 150.891 229.172 152.672L227.625 163.125C227.469 164.469 227.281 166.078 227.062 167.953C226.875 169.797 226.859 171.641 227.016 173.484C227.172 175.328 227.703 176.875 228.609 178.125C229.547 179.375 231.031 180.047 233.062 180.141C235.344 180.266 237.203 179.781 238.641 178.688C240.109 177.594 241.266 176.156 242.109 174.375C242.984 172.594 243.625 170.703 244.031 168.703C244.469 166.672 244.797 164.797 245.016 163.078ZM291.797 168.891L277.688 168.844L279.891 156.141L292.406 156.234C294.281 156.203 295.828 155.734 297.047 154.828C298.266 153.922 299.203 152.75 299.859 151.312C300.547 149.844 301.016 148.281 301.266 146.625C301.453 145.438 301.562 144.078 301.594 142.547C301.656 141.016 301.391 139.656 300.797 138.469C300.234 137.281 299.109 136.625 297.422 136.5L289.125 136.453L279.422 192H263.859L275.625 123.75L297.891 123.797C302.203 123.922 305.844 125.016 308.812 127.078C311.781 129.141 313.984 131.859 315.422 135.234C316.859 138.609 317.406 142.375 317.062 146.531C316.688 151.125 315.344 155.094 313.031 158.438C310.75 161.781 307.781 164.375 304.125 166.219C300.469 168.031 296.359 168.922 291.797 168.891ZM358.172 123.75L346.312 192H330.609L342.469 123.75H358.172ZM374.203 123.75L372 136.453H324.609L326.859 123.75H374.203ZM397.219 123.75L385.406 192H369.75L381.609 123.75H397.219ZM448.219 155.531L443.906 184.031C442 186.156 439.703 187.875 437.016 189.188C434.328 190.5 431.516 191.453 428.578 192.047C425.641 192.672 422.781 192.953 420 192.891C415.781 192.828 412.234 192 409.359 190.406C406.516 188.781 404.297 186.594 402.703 183.844C401.109 181.062 400.062 177.922 399.562 174.422C399.094 170.922 399.094 167.297 399.562 163.547L401.297 152.297C401.797 148.359 402.75 144.609 404.156 141.047C405.562 137.484 407.391 134.312 409.641 131.531C411.922 128.75 414.703 126.578 417.984 125.016C421.266 123.422 425.078 122.672 429.422 122.766C434.297 122.828 438.266 123.844 441.328 125.812C444.422 127.75 446.672 130.453 448.078 133.922C449.516 137.391 450.203 141.453 450.141 146.109L435.141 146.016C435.234 144.297 435.203 142.641 435.047 141.047C434.891 139.453 434.359 138.141 433.453 137.109C432.578 136.047 431.078 135.469 428.953 135.375C426.703 135.25 424.859 135.719 423.422 136.781C421.984 137.812 420.828 139.203 419.953 140.953C419.109 142.703 418.469 144.578 418.031 146.578C417.625 148.578 417.312 150.438 417.094 152.156L415.406 163.594C415.219 165.156 415.031 166.891 414.844 168.797C414.656 170.672 414.688 172.484 414.938 174.234C415.188 175.953 415.828 177.375 416.859 178.5C417.922 179.625 419.578 180.203 421.828 180.234C422.797 180.266 423.609 180.156 424.266 179.906C424.953 179.656 425.625 179.344 426.281 178.969C426.938 178.594 427.672 178.25 428.484 177.938L430.688 166.828H422.766L424.734 155.531H448.219ZM484.594 138.844L463.266 192H446.016L478.266 123.75H489.141L484.594 138.844ZM485.156 192L482.156 137.25L482.531 123.75H492.891L501.516 192H485.156ZM489.984 166.547L487.734 179.25H458.953L461.203 166.547H489.984ZM534.938 123.75L523.125 192H507.469L519.328 123.75H534.938ZM592.453 123.75L580.641 192H565.406L556.031 148.922L548.531 192H532.922L544.688 123.75H560.016L569.391 166.828L576.844 123.75H592.453Z" fill="#F4F4F4"/>
</g>
<defs>
<filter id="filter0_d_1208_202" x="0" y="55" width="343.159" height="348" filterUnits="userSpaceOnUse" color-interpolation-filters="sRGB">
<feFlood flood-opacity="0" result="BackgroundImageFix"/>
<feColorMatrix in="SourceAlpha" type="matrix" values="0 0 0 0 0 0 0 0 0 0 0 0 0 0 0 0 0 0 127 0" result="hardAlpha"/>
<feOffset dy="4"/>
<feGaussianBlur stdDeviation="2"/>
<feComposite in2="hardAlpha" operator="out"/>
<feColorMatrix type="matrix" values="0 0 0 0 0 0 0 0 0 0 0 0 0 0 0 0 0 0 0.25 0"/>
<feBlend mode="normal" in2="BackgroundImageFix" result="effect1_dropShadow_1208_202"/>
<feBlend mode="normal" in="SourceGraphic" in2="effect1_dropShadow_1208_202" result="shape"/>
</filter>
<filter id="filter1_d_1208_202" x="91" y="7" width="343.159" height="348" filterUnits="userSpaceOnUse" color-interpolation-filters="sRGB">
<feFlood flood-opacity="0" result="BackgroundImageFix"/>
<feColorMatrix in="SourceAlpha" type="matrix" values="0 0 0 0 0 0 0 0 0 0 0 0 0 0 0 0 0 0 127 0" result="hardAlpha"/>
<feOffset dy="4"/>
<feGaussianBlur stdDeviation="2"/>
<feComposite in2="hardAlpha" operator="out"/>
<feColorMatrix type="matrix" values="0 0 0 0 0 0 0 0 0 0 0 0 0 0 0 0 0 0 0.25 0"/>
<feBlend mode="normal" in2="BackgroundImageFix" result="effect1_dropShadow_1208_202"/>
<feBlend mode="normal" in="SourceGraphic" in2="effect1_dropShadow_1208_202" result="shape"/>
</filter>
<filter id="filter2_d_1208_202" x="404.868" y="0" width="343.159" height="348" filterUnits="userSpaceOnUse" color-interpolation-filters="sRGB">
<feFlood flood-opacity="0" result="BackgroundImageFix"/>
<feColorMatrix in="SourceAlpha" type="matrix" values="0 0 0 0 0 0 0 0 0 0 0 0 0 0 0 0 0 0 127 0" result="hardAlpha"/>
<feOffset dy="4"/>
<feGaussianBlur stdDeviation="2"/>
<feComposite in2="hardAlpha" operator="out"/>
<feColorMatrix type="matrix" values="0 0 0 0 0 0 0 0 0 0 0 0 0 0 0 0 0 0 0.25 0"/>
<feBlend mode="normal" in2="BackgroundImageFix" result="effect1_dropShadow_1208_202"/>
<feBlend mode="normal" in="SourceGraphic" in2="effect1_dropShadow_1208_202" result="shape"/>
</filter>
<filter id="filter3_d_1208_202" x="207.078" y="122.625" width="389.375" height="78.5" filterUnits="userSpaceOnUse" color-interpolation-filters="sRGB">
<feFlood flood-opacity="0" result="BackgroundImageFix"/>
<feColorMatrix in="SourceAlpha" type="matrix" values="0 0 0 0 0 0 0 0 0 0 0 0 0 0 0 0 0 0 127 0" result="hardAlpha"/>
<feOffset dy="4"/>
<feGaussianBlur stdDeviation="2"/>
<feComposite in2="hardAlpha" operator="out"/>
<feColorMatrix type="matrix" values="0 0 0 0 0 0 0 0 0 0 0 0 0 0 0 0 0 0 0.25 0"/>
<feBlend mode="normal" in2="BackgroundImageFix" result="effect1_dropShadow_1208_202"/>
<feBlend mode="normal" in="SourceGraphic" in2="effect1_dropShadow_1208_202" result="shape"/>
</filter>
</defs>
</svg>
